<svg xmlns="http://www.w3.org/2000/svg" xmlns:xlink="http://www.w3.org/1999/xlink" width="107" height="114" viewBox="0 0 107 114"><defs><path id="scysa" d="M737 648.02a10.53 10.53 0 0 1-5.41-16.82l-12.77-18a18.92 18.92 0 0 1-25.02-7.4l-23.77 9.43a10.52 10.52 0 1 1-20.6-1.55 10.52 10.52 0 0 1 18.55-3.6l23.77-9.42a19 19 0 0 1 20.65-23.19l4.81-17.95c-4-2.33-6.11-7.12-4.86-11.8a10.53 10.53 0 0 1 20.32 5.45 10.53 10.53 0 0 1-10.11 7.78l-4.81 17.96a19 19 0 0 1 10.8 22.31 18.83 18.83 0 0 1-5.21 8.8L736.1 628a10.52 10.52 0 0 1 13.77 12.59 10.52 10.52 0 0 1-12.87 7.43zm-76.13-36.43a4.99 4.99 0 1 0-2.57 9.63 4.99 4.99 0 0 0 2.57-9.63zm66.45-59.85a4.99 4.99 0 1 0-9.64-2.57 4.99 4.99 0 0 0 9.64 2.57zm-13.62 31.6a13.46 13.46 0 0 0-16.47 9.5 13.46 13.46 0 0 0 25.98 6.95 13.46 13.46 0 0 0-9.51-16.45zm27.3 49.72a4.99 4.99 0 1 0-2.57 9.63 4.99 4.99 0 0 0 2.57-9.63z"/></defs><g><g transform="translate(-646 -537)"><use fill="#fff" xlink:href="#scysa"/></g></g></svg>