<svg xmlns="http://www.w3.org/2000/svg" xmlns:xlink="http://www.w3.org/1999/xlink" width="30" height="36" viewBox="0 0 30 36"><defs><path id="5sqla" d="M138.8 90h-19.6a3.18 3.18 0 0 1-3.2-3.16v-21.4c0-.14.03-.27.1-.39l3.54-6.61a.83.83 0 0 1 .74-.44h17.24c.31 0 .6.17.74.44l3.54 6.61c.07.12.1.25.1.39v21.4a3.18 3.18 0 0 1-3.2 3.16zm-1.68-30.35h-16.24l-2.74 5.1h21.72zm3.22 6.76h-22.68v4.15h22.68zm0 5.8h-22.68v4.27h22.68zm0 5.92h-22.68v4.3h22.68zm0 5.95h-22.68v2.76c0 .83.7 1.51 1.53 1.51h19.62c.84 0 1.53-.68 1.53-1.51zm-2.68 2.89a.7.7 0 0 1-.71-.7c0-.4.32-.71.71-.71.4 0 .71.32.71.7a.7.7 0 0 1-.7.71zm0-.86a.16.16 0 0 0-.15.15c0 .09.07.16.15.16.09 0 .16-.07.16-.16a.16.16 0 0 0-.16-.15zm-2.71.86a.7.7 0 0 1-.72-.7c0-.4.32-.71.72-.71.39 0 .7.32.7.7a.7.7 0 0 1-.7.71zm0-.86a.16.16 0 0 0-.16.15c0 .09.07.16.16.16.08 0 .15-.07.15-.16a.16.16 0 0 0-.15-.15zm-2.75.86a.7.7 0 0 1-.72-.7c0-.4.32-.71.72-.71.39 0 .7.32.7.7a.7.7 0 0 1-.7.71zm0-.86a.16.16 0 0 0-.16.15c0 .09.07.16.16.16.08 0 .15-.07.15-.16a.16.16 0 0 0-.15-.15zm-12.14 1.86c-.95 0-1.72-.77-1.72-1.7 0-.95.77-1.71 1.72-1.71s1.72.76 1.72 1.7-.77 1.7-1.72 1.7zm0-2.59c-.49 0-.89.4-.89.88 0 .49.4.88.9.88.48 0 .88-.39.88-.88 0-.48-.4-.88-.89-.88zm0-6.92c.95 0 1.72.76 1.72 1.7s-.77 1.7-1.72 1.7-1.72-.76-1.72-1.7.77-1.7 1.72-1.7zm0 2.58c.5 0 .89-.4.89-.88s-.4-.88-.89-.88-.89.4-.89.88c0 .49.4.88.9.88zm12.14-1.58c.39 0 .7.31.7.7a.7.7 0 0 1-.7.7.7.7 0 0 1-.72-.7c0-.39.32-.7.72-.7zm0 .86c.08 0 .15-.07.15-.16a.16.16 0 0 0-.15-.15.16.16 0 0 0-.16.15c0 .09.07.16.16.16zm2.75-.86c.39 0 .7.31.7.7a.7.7 0 0 1-.7.7.7.7 0 0 1-.72-.7c0-.39.32-.7.72-.7zm0 .86c.08 0 .15-.07.15-.16a.16.16 0 0 0-.15-.15.16.16 0 0 0-.16.15c0 .09.07.16.16.16zm2.71-.86c.4 0 .71.31.71.7a.7.7 0 0 1-.7.7.7.7 0 0 1-.72-.7c0-.39.32-.7.71-.7zm0 .86c.09 0 .16-.07.16-.16a.16.16 0 0 0-.16-.15.16.16 0 0 0-.15.15c0 .09.07.16.15.16zm-17.6-7.62c.95 0 1.72.76 1.72 1.7s-.77 1.7-1.72 1.7-1.72-.76-1.72-1.7.77-1.7 1.72-1.7zm0 2.58c.5 0 .89-.4.89-.88s-.4-.88-.89-.88-.89.4-.89.88c0 .49.4.88.9.88zm12.14-1.58c.39 0 .7.31.7.7a.7.7 0 0 1-.7.7.7.7 0 0 1-.72-.7c0-.39.32-.7.72-.7zm0 .86c.08 0 .15-.07.15-.16a.16.16 0 0 0-.15-.15.16.16 0 0 0-.16.15c0 .09.07.16.16.16zm2.75-.86c.39 0 .7.31.7.7a.7.7 0 0 1-.7.7.7.7 0 0 1-.72-.7c0-.39.32-.7.72-.7zm0 .86c.08 0 .15-.07.15-.16a.16.16 0 0 0-.15-.15.16.16 0 0 0-.16.15c0 .09.07.16.16.16zm2.71-.86c.4 0 .71.31.71.7a.7.7 0 0 1-.7.7.7.7 0 0 1-.72-.7c0-.39.32-.7.71-.7zm0 .86c.09 0 .16-.07.16-.16a.16.16 0 0 0-.16-.15.16.16 0 0 0-.15.15c0 .09.07.16.15.16zm-17.6-7.73c.95 0 1.72.76 1.72 1.7s-.77 1.7-1.72 1.7-1.72-.76-1.72-1.7.77-1.7 1.72-1.7zm0 2.58c.5 0 .89-.4.89-.88s-.4-.88-.89-.88-.89.4-.89.88c0 .49.4.88.9.88zm12.14-1.58c.39 0 .7.31.7.7a.7.7 0 0 1-.7.7.7.7 0 0 1-.72-.7c0-.39.32-.7.72-.7zm0 .86c.08 0 .15-.07.15-.16a.16.16 0 0 0-.15-.15.16.16 0 0 0-.16.15c0 .09.07.16.16.16zm2.75-.86c.39 0 .7.31.7.7a.7.7 0 0 1-.7.7.7.7 0 0 1-.72-.7c0-.39.32-.7.72-.7zm0 .86c.08 0 .15-.07.15-.16a.16.16 0 0 0-.15-.15.16.16 0 0 0-.16.15c0 .09.07.16.16.16zm2.71-.86c.4 0 .71.31.71.7a.7.7 0 0 1-.7.7.7.7 0 0 1-.72-.7c0-.39.32-.7.71-.7zm0 .86c.09 0 .16-.07.16-.16a.16.16 0 0 0-.16-.15.16.16 0 0 0-.15.15c0 .09.07.16.15.16z"/><clipPath id="5sqlb"><use fill="#fff" xlink:href="#5sqla"/></clipPath></defs><g><g transform="translate(-114 -56)"><use fill="#fff" fill-opacity="0" stroke="#202242" stroke-miterlimit="50" stroke-width="5.3" clip-path="url(&quot;#5sqlb&quot;)" xlink:href="#5sqla"/></g></g></svg>