<svg xmlns="http://www.w3.org/2000/svg" xmlns:xlink="http://www.w3.org/1999/xlink" width="170" height="173" viewBox="0 0 170 173"><defs><path id="1f6oa" d="M462.96 1189.87h-61.65v30.52h39.31a2.31 2.31 0 1 1 0 4.61h-83.24a2.31 2.31 0 1 1 0-4.61h39.3v-30.52h-61.64a20.04 20.04 0 0 1-20.04-20v-62.67c0-.17.01-.34.03-.5l.02-.14.07-.37a4.63 4.63 0 0 1 .33-.95l.03-.09 23.12-46.59a4.63 4.63 0 0 1 4.15-2.56h112.5c1.76 0 3.37 1 4.15 2.56l23.12 46.59.04.1a4.58 4.58 0 0 1 .28.8l.04.14.07.37.02.13.03.51v62.66c0 11.03-9 20-20.04 20zm-10.57-124.64H345.6l-18.53 37.35h143.84zm21.36 46.59h-149.5v29.88h149.5zm0 39.11h-149.5v18.93a10.8 10.8 0 0 0 10.79 10.78h127.92a10.8 10.8 0 0 0 10.79-10.78zm-18.25 19.54a4.38 4.38 0 1 1 0-8.75 4.38 4.38 0 0 1 0 8.75zm0-5.66a1.3 1.3 0 1 0 0 2.59 1.3 1.3 0 0 0 0-2.59zm-17.71 5.66a4.38 4.38 0 1 1 0-8.75 4.38 4.38 0 0 1 0 8.75zm0-5.66a1.3 1.3 0 1 0 0 2.59 1.3 1.3 0 0 0 0-2.59zm-17.95 5.66a4.38 4.38 0 1 1 0-8.75 4.38 4.38 0 0 1 0 8.75zm0-5.66a1.3 1.3 0 1 0 0 2.59 1.3 1.3 0 0 0 0-2.59zm-79.15 12.1a10.83 10.83 0 0 1-10.82-10.8 10.83 10.83 0 0 1 21.65 0c0 5.95-4.86 10.8-10.83 10.8zm0-17a6.2 6.2 0 1 0 0 12.4 6.2 6.2 0 0 0 0-12.4zm0-44.74c5.97 0 10.83 4.85 10.83 10.8a10.83 10.83 0 0 1-21.65 0c0-5.95 4.85-10.8 10.82-10.8zm0 17a6.2 6.2 0 1 0 0-12.41 6.2 6.2 0 0 0 0 12.4zm79.15-10.56a4.38 4.38 0 1 1 0 8.75 4.38 4.38 0 0 1 0-8.75zm0 5.65a1.3 1.3 0 1 0 0-2.58 1.3 1.3 0 0 0 0 2.58zm17.95-5.65a4.38 4.38 0 1 1 0 8.75 4.38 4.38 0 0 1 0-8.75zm0 5.65a1.3 1.3 0 1 0 0-2.58 1.3 1.3 0 0 0 0 2.58zm17.71-5.65a4.38 4.38 0 1 1 0 8.75 4.38 4.38 0 0 1 0-8.75zm0 5.65a1.3 1.3 0 1 0 0-2.58 1.3 1.3 0 0 0 0 2.58zm-134.33 93.13h9.76a2.31 2.31 0 1 1 0 4.61h-9.76a2.31 2.31 0 1 1 0-4.61zm17.72 0h9.76a2.31 2.31 0 1 1 0 4.61h-9.76a2.31 2.31 0 1 1 0-4.61zm109.94 0h9.76a2.31 2.31 0 1 1 0 4.61h-9.76a2.31 2.31 0 1 1 0-4.61zm16.7 0h9.76a2.31 2.31 0 1 1 0 4.61h-9.76a2.31 2.31 0 1 1 0-4.61z"/></defs><g><g transform="translate(-314 -1054)"><use fill="#fff" xlink:href="#1f6oa"/></g></g></svg>